# Blender v3.1.2 OBJ File: 'clouds.blend'
# www.blender.org
o Icosphere.005_Icosphere.008
v -16.586475 2.052983 6.288471
v -17.057512 -0.682589 7.590837
v -17.781958 -2.107288 7.063830
v -18.711605 -0.969384 6.350678
v -17.173658 1.312088 6.633706
v -17.974566 0.076559 6.498721
v -17.303350 -1.014750 7.670300
v -18.267382 -1.011565 5.034927
v -17.551565 0.024908 5.153763
v -16.320398 0.404537 7.309979
v -15.314970 0.079021 7.259504
v -14.660352 1.092638 5.721357
v -14.849634 0.611270 6.516615
v -14.687105 -0.336600 6.730998
v -14.066647 0.641861 6.451046
v -14.013252 1.037434 5.305533
v -16.041393 -2.133633 7.236786
v -15.218376 -1.541182 7.124812
v -16.136116 -2.405289 5.565403
v -15.759665 -0.621398 4.567719
v -14.793250 -1.256849 6.380403
v -15.488687 -1.667291 5.305540
v -15.207684 -0.655205 4.281195
v -15.178432 -1.437649 4.989669
v -17.332088 1.587825 6.088274
v -17.173140 1.607019 5.585568
v -15.451730 1.927372 5.317351
v -14.684461 1.077393 4.846722
v -16.589434 1.736181 5.089506
v -15.273697 0.904874 4.566479
v -15.001698 0.313088 4.291951
v -15.039910 -0.032055 3.908366
v -18.672232 -1.737050 5.522299
v -17.525793 -2.439985 5.859286
v -17.284288 -1.487318 4.600084
v -13.650232 -0.302468 6.165715
v -14.316792 -1.354723 6.016997
v -14.877522 -1.342799 3.588699
v -14.052269 -1.644891 4.269089
v -14.738741 -1.320000 2.731537
v -12.959394 -0.673789 5.215848
v -12.688728 -0.596381 4.633261
v -12.815750 -0.229408 3.556473
v -13.137474 -1.232280 3.786256
v -13.782115 -0.937128 1.666316
v -13.209723 -0.544894 1.716284
v -13.831216 1.001088 4.702984
v -14.910814 -0.906580 2.576110
v -14.003650 0.654724 3.692568
v -14.822257 0.029480 2.314972
v -14.081338 -0.219813 1.650006
v -13.245506 0.045369 2.298541
vn -0.1372 0.5057 0.8517
vn -0.4635 0.2063 0.8617
vn -0.9073 0.2980 -0.2968
vn -0.7785 0.5682 -0.2667
vn 0.4793 -0.0533 0.8760
vn -0.0950 -0.4510 0.8875
vn 0.2215 -0.1249 0.9671
vn 0.5901 -0.8015 0.0968
vn -0.2665 0.2895 -0.9193
vn 0.1073 0.1799 0.9778
vn 0.6269 -0.7766 0.0614
vn 0.7028 -0.6846 -0.1933
vn 0.8784 -0.2553 0.4041
vn 0.4553 -0.3624 0.8133
vn -0.3952 0.8883 -0.2338
vn -0.6515 0.3408 -0.6778
vn 0.0597 0.5976 -0.7996
vn 0.7425 0.4756 -0.4717
vn -0.8197 -0.4391 0.3679
vn 0.0578 -0.9859 0.1570
vn -0.5435 -0.8316 0.1141
vn -0.1101 -0.7824 -0.6130
vn 0.9199 0.3556 0.1657
vn 0.4940 -0.4205 0.7610
vn 0.3918 -0.8833 -0.2573
vn -0.9472 -0.2340 -0.2193
vn 0.6117 -0.4767 0.6313
vn -0.2530 -0.9601 -0.1193
vn 0.7919 0.4671 0.3934
vn 0.7999 0.5630 0.2077
vn 0.5463 -0.8010 0.2449
vn 0.4934 -0.8429 0.2146
vn 0.7810 0.4588 0.4238
vn 0.8113 0.5759 0.1005
vn 0.6502 -0.7317 0.2048
vn 0.0291 0.9440 -0.3286
vn -0.5583 0.8285 -0.0443
vn -0.9705 0.1472 -0.1907
vn -0.9354 -0.3349 -0.1135
vn 0.4531 0.6435 0.6169
vn -0.6865 -0.1344 -0.7146
vn -0.0132 0.9314 -0.3638
vn 0.5948 0.8034 -0.0277
vn 0.9206 0.3011 -0.2487
vn 0.5593 -0.7807 -0.2788
vn -0.8899 -0.4288 -0.1555
vn -0.6578 -0.2902 -0.6950
vn 0.0797 0.0106 -0.9968
vn -0.7705 0.4501 0.4514
vn -0.6346 0.3496 0.6892
vn -0.6819 -0.1033 0.7241
vn -0.7664 0.5793 -0.2773
vn -0.5513 0.6691 0.4984
vn -0.9093 0.3117 -0.2756
vn -0.4512 0.5093 0.7329
vn -0.4591 0.5009 0.7337
vn 0.2155 0.5393 0.8141
vn 0.1577 0.8923 0.4229
vn 0.5001 0.7124 0.4923
vn 0.7181 0.2684 0.6421
vn -0.4840 0.1376 -0.8642
vn 0.0722 0.2318 0.9701
vn 0.1242 0.1430 0.9819
vn 0.2368 -0.0665 0.9693
vn -0.1941 0.3069 -0.9318
vn 0.6334 -0.0265 0.7734
vn -0.3072 -0.6004 -0.7383
vn -0.3890 -0.6263 -0.6756
vn -0.5006 0.8565 -0.1256
vn 0.0726 0.9972 -0.0194
vn -0.1107 0.9609 -0.2536
vn -0.2706 0.1163 -0.9556
vn -0.3130 0.0989 -0.9446
vn -0.2770 0.9608 -0.0091
vn 0.2486 0.4993 -0.8300
vn -0.9739 0.2082 -0.0903
vn -0.9030 0.2928 -0.3143
vn -0.0403 -0.9653 0.2581
vn -0.4972 -0.2753 -0.8228
vn -0.2741 -0.7409 -0.6131
vn 0.2668 -0.5198 -0.8116
vn 0.2707 -0.5071 -0.8183
vn 0.0543 -0.9440 0.3254
vn -0.0848 -0.9849 0.1507
vn -0.2897 -0.9544 -0.0723
vn 0.3017 -0.9275 -0.2209
vn 0.8967 -0.4098 -0.1674
vn 0.0832 0.9959 -0.0349
vn -0.5420 0.6508 -0.5316
vn -0.5472 0.6284 -0.5529
vn -0.9895 0.0565 -0.1330
vn -0.0134 0.9135 -0.4066
vn 0.5318 0.7691 -0.3544
vn 0.9675 -0.1816 -0.1760
vn 0.3039 0.6783 -0.6690
vn -0.4528 -0.4727 -0.7560
vn 0.1060 -0.9623 -0.2507
s off
f 1//1 5//1 10//1
f 6//2 10//2 5//2
f 9//3 6//3 26//3
f 8//4 6//4 9//4
f 36//5 15//5 14//5
f 3//6 17//6 7//6
f 7//7 17//7 18//7
f 17//8 19//8 18//8
f 8//9 9//9 35//9
f 11//10 10//10 2//10
f 19//11 21//11 18//11
f 19//12 22//12 21//12
f 21//13 14//13 18//13
f 21//14 36//14 14//14
f 29//15 26//15 1//15
f 26//16 29//16 9//16
f 29//17 27//17 30//17
f 30//18 27//18 12//18
f 3//19 4//19 33//19
f 19//20 17//20 34//20
f 33//21 34//21 3//21
f 19//22 34//22 35//22
f 36//23 16//23 15//23
f 21//24 37//24 36//24
f 37//25 22//25 24//25
f 23//26 38//26 24//26
f 37//27 41//27 36//27
f 38//28 39//28 24//28
f 16//29 36//29 41//29
f 47//30 16//30 42//30
f 44//31 41//31 37//31
f 44//32 37//32 39//32
f 16//33 41//33 42//33
f 43//34 47//34 42//34
f 42//35 41//35 44//35
f 28//36 47//36 49//36
f 32//37 49//37 50//37
f 32//38 48//38 23//38
f 48//39 38//39 23//39
f 13//40 12//40 1//40 11//40
f 50//41 51//41 48//41
f 50//42 52//42 51//42
f 52//43 49//43 43//43
f 46//44 52//44 43//44
f 46//45 44//45 45//45
f 48//46 40//46 38//46
f 45//47 40//47 51//47
f 45//48 51//48 46//48
f 25//49 6//49 5//49
f 6//50 4//50 7//50
f 4//51 3//51 7//51
f 8//52 4//52 6//52
f 25//53 5//53 1//53
f 25//54 26//54 6//54
f 6//55 7//55 2//55
f 10//56 6//56 2//56
f 1//57 10//57 11//57
f 15//58 16//58 12//58 13//58
f 27//59 1//59 12//59
f 13//60 11//60 14//60
f 31//61 23//61 20//61 30//61
f 14//62 15//62 13//62
f 7//63 11//63 2//63
f 7//64 18//64 11//64
f 35//65 9//65 20//65
f 14//66 11//66 18//66
f 20//67 24//67 22//67
f 23//68 24//68 20//68
f 26//69 25//69 1//69
f 28//70 12//70 16//70
f 29//71 1//71 27//71
f 9//72 29//72 20//72
f 29//73 30//73 20//73
f 30//74 12//74 28//74
f 31//75 30//75 28//75
f 31//76 32//76 23//76
f 8//77 33//77 4//77
f 34//78 17//78 3//78
f 8//79 35//79 33//79
f 33//80 35//80 34//80
f 35//81 22//81 19//81
f 20//82 22//82 35//82
f 22//83 37//83 21//83
f 24//84 39//84 37//84
f 38//85 40//85 39//85
f 45//86 44//86 39//86
f 44//87 46//87 42//87
f 47//88 28//88 16//88
f 49//89 32//89 31//89
f 49//90 31//90 28//90
f 50//91 48//91 32//91
f 52//92 50//92 49//92
f 49//93 47//93 43//93
f 46//94 43//94 42//94
f 46//95 51//95 52//95
f 48//96 51//96 40//96
f 45//97 39//97 40//97
