# Blender v3.1.2 OBJ File: 'clouds.blend'
# www.blender.org
o Icosphere.006_Icosphere.012
v -14.134719 -0.921406 -0.860341
v -12.203586 -0.706533 0.141298
v -12.346695 0.011987 -0.491665
v -11.801853 -0.303949 -0.717326
v -12.939612 -1.690760 0.295165
v -13.344076 -2.347277 -0.374015
v -12.227781 -2.661743 -0.081168
v -12.784742 -3.157996 -1.110404
v -11.407640 -2.848975 -1.031861
v -13.238293 -0.247183 -0.437495
v -13.341481 -0.139104 -1.444816
v -13.458314 -0.937346 -2.794363
v -13.717807 -2.329759 -1.963264
v -13.363339 -1.609792 -3.966642
v -12.376444 -0.529765 -2.566820
v -11.606441 -0.691334 -2.309423
v -11.137240 -2.140582 -0.478433
v -11.014066 -1.565364 -1.925070
v -11.612140 0.203830 -4.040797
v -12.189863 -2.890765 -3.131546
v -12.952239 -2.272613 -4.428465
v -10.800955 0.028806 -3.519916
v -11.988731 -2.992496 -2.530841
v -10.919096 -1.457313 -2.728027
v -11.440588 -2.606287 -3.472131
v -11.988348 -0.008684 -5.017978
v -12.631448 -1.373264 -5.342323
v -13.510126 -0.671204 -6.790112
v -12.575815 -0.521947 -5.486425
v -12.472179 0.234992 -6.303239
v -12.516596 0.102423 -7.723672
v -13.408533 -1.157412 -7.954824
v -12.518151 -1.941628 -6.002235
v -13.019063 -0.645113 -8.469542
v -12.953107 -2.758252 -7.975530
v -10.387822 -0.084989 -3.933944
v -11.165801 -2.746699 -5.070151
v -9.734189 -1.288711 -3.829502
v -9.612467 -0.680677 -5.043632
v -10.140132 -2.401589 -4.567711
v -9.484505 -1.721318 -5.047110
v -10.498503 0.009505 -5.552273
v -11.539590 0.225474 -7.695132
v -10.448104 0.397492 -6.144053
v -10.026053 -0.663743 -5.985156
v -10.426085 -1.794349 -6.279991
v -10.047342 0.038005 -6.894918
v -9.941965 -0.927701 -7.361759
v -11.983552 -2.262702 -5.586312
v -11.662848 -2.452325 -6.423162
v -11.472737 -3.384764 -7.444162
v -12.892467 -1.579292 -9.090001
v -10.753677 -2.092809 -6.576888
v -11.527963 -3.246683 -8.815153
v -10.013162 -1.707425 -7.604336
v -11.124753 -0.976766 -9.141773
v -11.402472 -2.204901 -9.612291
v -10.298281 -3.364169 -7.944180
v -10.007208 -2.155596 -8.660591
v -10.434963 -2.742811 -8.994323
vn -0.3572 -0.7509 0.5554
vn 0.1870 -0.9206 0.3427
vn -0.8604 0.4089 -0.3043
vn -0.7350 -0.6575 0.1656
vn 0.4448 0.8812 -0.1598
vn 0.9080 0.3571 0.2193
vn 0.2185 -0.9758 0.0087
vn -0.8908 -0.3540 -0.2848
vn -0.0583 -0.9873 -0.1477
vn -0.4449 -0.8814 -0.1586
vn 0.7782 0.6036 0.1733
vn 0.8437 -0.4559 -0.2834
vn 0.7684 -0.6087 0.1977
vn 0.2466 -0.9386 -0.2415
vn -0.6431 0.7641 -0.0512
vn -0.9803 0.0310 -0.1950
vn -0.8305 -0.4257 0.3592
vn 0.4096 -0.8999 0.1495
vn 0.6166 0.3315 0.7141
vn 0.5629 -0.6139 0.5534
vn 0.8209 0.4735 0.3194
vn 0.4722 -0.7644 -0.4389
vn -0.0777 0.9800 -0.1832
vn -0.0952 0.9709 0.2199
vn -0.0754 0.9955 -0.0573
vn 0.2260 0.9733 0.0414
vn 0.6861 0.6675 -0.2894
vn 0.8593 0.3911 0.3296
vn 0.4948 -0.8038 -0.3302
vn 0.3775 0.7625 -0.5254
vn 0.8766 0.3907 0.2808
vn 0.9245 -0.3598 0.1255
vn 0.9952 0.0873 0.0441
vn -0.8649 0.1911 -0.4642
vn -0.0762 0.7560 -0.6501
vn -0.5135 -0.8581 -0.0024
vn -0.4778 -0.7695 0.4238
vn -0.2024 0.5226 -0.8282
vn -0.5550 -0.5562 -0.6186
vn -0.1576 0.3842 -0.9097
vn -0.3644 -0.9279 -0.0788
vn -0.4661 -0.5016 -0.7289
vn 0.5979 -0.7902 0.1346
vn 0.7790 0.3398 -0.5270
vn 0.7516 0.6088 -0.2541
vn 0.3626 -0.6192 0.6965
vn 0.2985 -0.6764 0.6733
vn -0.0248 -0.9948 -0.0992
vn 0.8403 -0.4116 -0.3529
vn 0.2877 -0.8074 -0.5152
vn 0.5774 0.6014 0.5522
vn -0.3536 -0.5519 0.7552
vn 0.3756 -0.0824 0.9231
vn 0.5140 -0.6413 0.5697
vn -0.5713 0.2744 0.7735
vn -0.6378 0.7561 0.1465
vn -0.1397 0.6387 0.7566
vn -0.3200 0.3753 0.8699
vn -0.7436 -0.1941 0.6398
vn -0.7701 0.5761 -0.2741
vn -0.8841 -0.4209 0.2033
vn -0.9695 -0.1191 -0.2143
vn -0.2695 0.9542 0.1300
vn 0.0959 0.9628 -0.2527
vn -0.2180 0.8482 -0.4828
vn 0.7753 0.3490 0.5264
vn 0.3640 -0.1280 0.9226
vn 0.2772 0.9287 -0.2464
vn -0.4999 -0.8273 -0.2565
vn 0.8338 0.5511 -0.0318
vn 0.0077 0.8571 0.5150
vn -0.0707 0.9071 0.4148
vn 0.9451 -0.3232 -0.0480
vn 0.8977 -0.4380 0.0472
vn -0.3863 0.8899 0.2426
vn -0.5189 0.8547 0.0139
vn -0.7244 0.5490 0.4169
vn -0.8528 -0.1900 -0.4864
vn -0.6985 0.1636 0.6967
vn -0.3338 -0.9061 -0.2599
vn -0.7152 -0.3560 -0.6014
vn -0.7750 -0.2434 0.5833
vn -0.6817 -0.6081 0.4067
vn -0.7110 0.6749 -0.1974
vn -0.8751 0.4147 -0.2494
vn -0.9613 -0.2739 0.0305
vn 0.7104 0.2861 0.6430
vn 0.6959 0.4279 0.5768
vn 0.5960 -0.5834 0.5518
vn 0.2591 -0.9573 0.1287
vn 0.7854 -0.5146 0.3439
vn 0.9801 0.1200 0.1583
vn 0.1872 0.8141 0.5497
vn -0.1219 0.9886 -0.0885
vn 0.2324 0.9720 -0.0353
vn 0.6130 0.7901 0.0042
vn 0.2724 0.9164 -0.2933
vn 0.9104 0.1133 -0.3979
vn 0.7921 -0.1244 -0.5976
vn 0.9433 -0.1741 0.2827
vn 0.5537 0.1479 -0.8195
vn -0.9124 -0.2554 -0.3199
vn -0.1075 0.7375 -0.6667
vn -0.1209 -0.7441 0.6570
vn -0.2349 -0.8666 -0.4403
vn 0.3950 -0.8517 0.3444
vn 0.7188 -0.6877 -0.1018
vn -0.8120 0.4714 -0.3442
vn 0.8278 0.0964 -0.5527
vn 0.8277 -0.2459 0.5043
vn 0.1550 -0.6120 -0.7755
vn 0.9790 -0.1858 0.0843
s off
f 8//1 7//1 6//1
f 8//2 9//2 7//2
f 12//3 14//3 1//3
f 8//4 6//4 13//4
f 16//5 3//5 4//5
f 4//6 17//6 18//6
f 8//7 23//7 9//7
f 21//8 13//8 14//8
f 20//9 23//9 8//9
f 20//10 13//10 21//10
f 16//11 18//11 24//11
f 23//12 18//12 9//12
f 25//13 18//13 23//13
f 25//14 23//14 20//14
f 28//15 30//15 31//15
f 27//16 29//16 33//16
f 33//17 28//17 35//17
f 37//18 25//18 20//18
f 22//19 24//19 38//19
f 25//20 40//20 24//20
f 36//21 38//21 39//21
f 37//22 41//22 40//22
f 26//23 19//23 42//23
f 30//24 26//24 44//24
f 30//25 44//25 43//25
f 42//26 19//26 36//26
f 42//27 39//27 45//27
f 45//28 44//28 42//28
f 37//29 46//29 41//29
f 43//30 47//30 56//30
f 44//31 45//31 47//31
f 48//32 45//32 46//32
f 48//33 47//33 45//33
f 52//34 32//34 34//34
f 56//35 31//35 43//35
f 50//36 49//36 33//36
f 35//37 51//37 33//37
f 52//38 34//38 56//38
f 52//39 54//39 35//39
f 52//40 56//40 57//40
f 35//41 54//41 51//41
f 57//42 54//42 52//42
f 55//43 46//43 53//43
f 56//44 47//44 48//44
f 59//45 56//45 55//45
f 50//46 58//46 53//46
f 58//47 50//47 51//47
f 54//48 58//48 51//48
f 60//49 59//49 58//49
f 60//50 58//50 54//50
f 3//51 2//51 4//51
f 6//52 7//52 5//52
f 7//53 17//53 5//53
f 9//54 17//54 7//54
f 1//55 5//55 10//55
f 1//56 10//56 11//56
f 10//57 2//57 3//57
f 10//58 5//58 2//58
f 1//59 6//59 5//59
f 12//60 1//60 11//60
f 13//61 6//61 1//61
f 14//62 13//62 1//62
f 11//63 10//63 3//63
f 15//64 11//64 3//64
f 12//65 11//65 15//65
f 2//66 17//66 4//66
f 5//67 17//67 2//67
f 15//68 3//68 16//68
f 13//69 20//69 8//69
f 16//70 4//70 18//70
f 22//71 15//71 16//71
f 19//72 15//72 22//72
f 9//73 18//73 17//73
f 25//74 24//74 18//74
f 12//75 15//75 19//75
f 26//76 12//76 19//76
f 30//77 28//77 29//77 26//77
f 14//78 27//78 21//78
f 29//79 27//79 26//79
f 37//80 20//80 21//80 49//80
f 27//81 49//81 21//81
f 28//82 33//82 29//82
f 27//83 33//83 49//83
f 34//84 28//84 31//84
f 32//85 28//85 34//85
f 35//86 28//86 32//86
f 22//87 16//87 24//87
f 36//88 22//88 38//88
f 24//89 40//89 38//89
f 37//90 40//90 25//90
f 41//91 38//91 40//91
f 39//92 38//92 41//92
f 26//93 42//93 44//93
f 43//94 31//94 30//94
f 36//95 19//95 22//95
f 39//96 42//96 36//96
f 43//97 44//97 47//97
f 41//98 45//98 39//98
f 46//99 45//99 41//99
f 55//100 48//100 46//100
f 59//101 60//101 57//101 56//101
f 52//102 35//102 32//102
f 34//103 31//103 56//103
f 33//104 51//104 50//104
f 49//105 53//105 37//105
f 50//106 53//106 49//106
f 53//107 46//107 37//107
f 26//108 27//108 14//108 12//108
f 55//109 56//109 48//109
f 53//110 58//110 55//110
f 54//111 57//111 60//111
f 59//112 55//112 58//112
