# Blender v3.1.2 OBJ File: 'clouds.blend'
# www.blender.org
o Icosphere.001_Icosphere.002
v -6.020617 -1.197254 5.439832
v -4.823095 -1.127362 6.515071
v -5.175208 0.457724 5.065135
v -5.782538 -1.970394 5.151130
v -3.671140 0.040321 6.090590
v -4.745985 -2.251076 5.462116
v -5.536429 -0.157383 4.661834
v -3.530719 0.485225 4.470856
v -3.678266 -0.011037 3.494487
v -5.865746 -1.461504 4.824788
v -4.970951 -0.698244 4.073665
v -3.901010 -1.458259 6.143597
v -3.985467 -2.077074 5.722150
v -2.987345 -1.093473 5.505049
v -2.380992 -1.532209 4.507392
v -2.332604 -1.055313 4.166395
v -3.800646 -0.183255 2.376830
v -2.547708 -0.718949 3.422662
v -3.610122 -0.797437 1.285607
v -2.348673 -1.314796 2.959585
v -2.659324 -0.731462 1.736447
v -2.899698 -1.335775 1.114404
v -4.465187 -2.255974 4.438162
v -4.646615 -0.780664 3.319526
v -4.788969 -1.407400 3.985224
v -4.670734 -1.751229 2.265830
v -4.480164 -0.706138 1.776095
v -3.609243 -2.394866 3.992781
v -4.230849 -2.187474 2.496658
v -2.675254 -1.923274 3.347182
v -3.537495 -1.706918 1.161007
vn -0.6087 0.4577 0.6481
vn 0.0817 0.9592 0.2706
vn -0.3745 -0.6476 0.6637
vn -0.9281 0.1947 -0.3174
vn -0.6120 -0.0587 -0.7887
vn -0.5225 0.3152 -0.7922
vn -0.4868 -0.5486 -0.6798
vn 0.1227 -0.5700 0.8124
vn 0.6241 -0.5010 0.5996
vn 0.8812 0.4309 0.1947
vn 0.7929 0.6077 0.0455
vn 0.9954 -0.0958 0.0073
vn 0.1590 0.8720 -0.4630
vn -0.5528 0.7687 -0.3218
vn -0.0739 -0.9836 0.1647
vn -0.9034 -0.4106 -0.1235
vn -0.9877 0.1255 -0.0930
vn -0.7241 -0.6841 0.0870
vn 0.5751 -0.7732 0.2672
vn 0.8658 -0.4977 -0.0518
vn 0.2990 0.6241 -0.7219
vn 0.3168 -0.9235 -0.2163
vn -0.5872 -0.4356 0.6823
vn -0.3335 0.5949 0.7313
vn -0.8808 0.4672 0.0763
vn -0.3044 0.7935 -0.5269
vn -0.6052 0.7951 -0.0392
vn -0.9600 -0.2446 -0.1366
vn -0.6804 0.0808 -0.7284
vn -0.5079 -0.5223 -0.6850
vn 0.3664 -0.0233 0.9302
vn -0.0908 -0.6842 0.7236
vn 0.5882 -0.0617 0.8064
vn 0.6216 -0.4971 0.6054
vn 0.7631 0.5168 0.3880
vn 0.4508 0.7664 -0.4577
vn 0.8735 0.2214 0.4336
vn 0.9200 0.3804 -0.0940
vn 0.5284 0.8480 -0.0413
vn 0.3422 0.9223 -0.1796
vn 0.9304 0.3608 -0.0643
vn 0.9548 -0.0873 -0.2841
vn -0.2435 -0.9679 -0.0621
vn 0.2030 -0.9773 0.0603
vn -0.9097 -0.1872 -0.3708
vn -0.1889 -0.9803 -0.0574
vn -0.9861 0.1330 -0.0999
vn -0.1977 0.8391 -0.5068
vn 0.4388 -0.8793 0.1851
vn -0.4614 -0.7311 -0.5026
vn -0.6789 -0.2064 -0.7046
vn 0.2244 -0.9482 -0.2247
vn -0.4830 0.0809 -0.8719
vn 0.7893 -0.5696 -0.2292
vn 0.4698 -0.8410 -0.2685
vn -0.1434 0.1231 -0.9820
s off
f 1//1 2//1 3//1
f 3//2 5//2 8//2
f 6//3 2//3 4//3
f 10//4 1//4 7//4
f 10//5 11//5 25//5
f 11//6 7//6 9//6
f 23//7 4//7 25//7
f 12//8 2//8 13//8
f 15//9 14//9 13//9
f 8//10 5//10 14//10
f 8//11 16//11 18//11
f 20//12 16//12 15//12
f 19//13 17//13 21//13
f 11//14 9//14 24//14
f 28//15 13//15 23//15
f 25//16 29//16 23//16
f 25//17 24//17 26//17
f 29//18 25//18 26//18
f 28//19 30//19 13//19
f 30//20 20//20 15//20
f 19//21 21//21 22//21
f 31//22 30//22 28//22
f 1//23 4//23 2//23
f 5//24 3//24 2//24
f 7//25 1//25 3//25
f 3//26 8//26 9//26 7//26
f 17//27 27//27 24//27 9//27
f 10//28 4//28 1//28
f 11//29 10//29 7//29
f 25//30 4//30 10//30
f 5//31 2//31 12//31
f 6//32 13//32 2//32
f 5//33 12//33 14//33
f 13//34 14//34 12//34
f 16//35 8//35 14//35
f 9//36 8//36 18//36
f 15//37 16//37 14//37
f 18//38 16//38 20//38
f 9//39 18//39 21//39
f 17//40 9//40 21//40
f 21//41 18//41 20//41
f 20//42 22//42 21//42
f 4//43 23//43 6//43
f 23//44 13//44 6//44
f 25//45 11//45 24//45
f 23//46 29//46 28//46
f 27//47 26//47 24//47
f 27//48 17//48 19//48
f 13//49 30//49 15//49
f 26//50 31//50 29//50
f 31//51 26//51 27//51
f 29//52 31//52 28//52
f 31//53 27//53 19//53
f 30//54 22//54 20//54
f 30//55 31//55 22//55
f 22//56 31//56 19//56
