# Blender v3.1.2 OBJ File: 'clouds.blend'
# www.blender.org
o Icosphere.003_Icosphere.009
v -3.119127 0.157513 -7.768435
v -2.999103 0.912131 -7.540844
v -3.171167 1.159315 -6.744290
v -3.836678 -0.433751 -7.163711
v -4.523993 -0.453198 -6.584022
v -4.284366 0.468673 -6.192222
v -3.718736 1.312522 -6.355006
v -4.819857 0.111612 -6.312580
v -3.599686 -0.078157 -8.250765
v -3.524398 0.603307 -8.346223
v -3.902482 -0.600595 -7.692582
v -4.658972 0.227221 -8.607260
v -4.749658 -0.933354 -7.779240
v -5.674890 -0.765826 -7.273740
v -6.284695 -0.032317 -8.063035
v -3.256801 1.381995 -7.335725
v -3.704957 1.568281 -7.615387
v -3.827345 1.759878 -6.770691
v -4.902796 1.790295 -7.568653
v -5.113419 1.483511 -6.375611
v -5.143592 1.920303 -6.915495
v -4.908818 0.956816 -8.315126
v -5.972631 1.479639 -8.355874
v -6.475156 0.468013 -8.117074
v -6.071486 2.163592 -7.723433
v -5.929779 0.710980 -5.960632
v -5.426812 -0.679458 -6.668146
v -6.380969 -0.368703 -6.795299
v -6.035632 2.100632 -6.580746
v -6.725751 0.379210 -7.234951
v -6.787496 0.953071 -6.461637
v -6.615350 2.098177 -7.321762
v -6.820880 1.369184 -7.493039
vn 0.0647 -0.4045 0.9122
vn 0.7387 -0.1729 -0.6515
vn 0.3325 -0.9105 0.2459
vn 0.3567 -0.7708 -0.5279
vn 0.1031 -0.5830 -0.8059
vn 0.8308 0.0354 -0.5554
vn 0.8843 0.4645 0.0469
vn 0.4509 0.8823 -0.1348
vn 0.0737 0.6884 0.7216
vn 0.1394 0.6143 -0.7767
vn 0.0800 0.3940 -0.9156
vn 0.3352 0.6272 -0.7030
vn 0.2454 0.4316 -0.8681
vn -0.2805 -0.2080 -0.9371
vn 0.3037 0.6701 -0.6772
vn 0.0733 -0.4005 0.9133
vn 0.3580 0.1192 0.9261
vn 0.0729 0.4110 0.9087
vn 0.5959 -0.4327 0.6765
vn 0.2148 0.9755 0.0470
vn -0.7118 0.1943 -0.6749
vn -0.5442 -0.3588 0.7583
vn -0.9291 -0.3286 0.1697
vn -0.3975 0.3485 0.8489
vn -0.9443 -0.1650 -0.2849
vn 0.9338 -0.2310 0.2734
vn 0.7625 -0.4427 0.4718
vn 0.5836 0.5611 -0.5870
vn 0.5309 -0.1969 0.8242
vn 0.6473 -0.6992 -0.3033
vn 0.2722 -0.1629 -0.9484
vn 0.6957 -0.7053 0.1359
vn 0.2870 -0.9064 0.3099
vn -0.1805 -0.5619 -0.8073
vn 0.2000 -0.9217 0.3325
vn -0.0827 -0.9813 0.1738
vn -0.3900 -0.8051 -0.4469
vn 0.6262 0.6994 0.3445
vn 0.0882 0.9609 0.2627
vn 0.1714 0.9659 -0.1942
vn 0.0081 0.1842 0.9829
vn -0.2181 -0.0018 0.9759
vn -0.6397 0.4160 -0.6464
vn 0.0941 0.6638 -0.7420
vn 0.3123 0.9472 -0.0734
vn -0.2708 -0.0917 -0.9583
vn 0.0282 -0.4452 0.8950
vn -0.2755 -0.5132 0.8128
vn -0.3303 -0.9060 0.2645
vn -0.5970 -0.7630 -0.2478
vn 0.3636 0.7340 0.5736
vn -0.8842 -0.3677 -0.2882
vn -0.0774 0.9954 0.0573
vn -0.8409 -0.5038 -0.1975
vn -0.9952 -0.0975 -0.0071
vn -0.6820 0.5020 0.5319
vn -0.9620 0.2411 0.1284
s off
f 5//1 6//1 8//1
f 10//2 1//2 9//2
f 11//3 4//3 13//3
f 9//4 11//4 13//4
f 9//5 13//5 12//5
f 10//6 2//6 1//6
f 16//7 3//7 2//7
f 17//8 18//8 16//8
f 20//9 7//9 18//9
f 22//10 17//10 10//10
f 12//11 22//11 10//11
f 19//12 22//12 23//12
f 23//13 22//13 12//13
f 12//14 15//14 24//14
f 25//15 19//15 23//15
f 5//16 8//16 26//16
f 20//17 26//17 8//17
f 29//18 26//18 20//18
f 3//19 6//19 5//19 4//19
f 29//20 21//20 25//20
f 23//21 24//21 33//21
f 31//22 28//22 26//22
f 30//23 28//23 31//23
f 31//24 26//24 29//24
f 24//25 30//25 33//25
f 1//26 2//26 3//26
f 4//27 1//27 3//27
f 2//28 10//28 17//28 16//28
f 3//29 7//29 6//29
f 11//30 9//30 1//30
f 9//31 12//31 10//31
f 4//32 11//32 1//32
f 13//33 4//33 5//33
f 15//34 12//34 13//34
f 27//35 13//35 5//35
f 14//36 13//36 27//36
f 15//37 13//37 14//37
f 3//38 16//38 18//38 7//38
f 18//39 19//39 21//39 20//39
f 17//40 19//40 18//40
f 7//41 20//41 6//41
f 20//42 8//42 6//42
f 32//43 25//43 23//43 33//43
f 22//44 19//44 17//44
f 25//45 21//45 19//45
f 23//46 12//46 24//46
f 5//47 26//47 27//47
f 27//48 26//48 28//48
f 14//49 27//49 28//49
f 15//50 14//50 28//50
f 29//51 20//51 21//51
f 30//52 24//52 15//52
f 25//53 32//53 29//53
f 30//54 15//54 28//54
f 31//55 33//55 30//55
f 29//56 32//56 31//56
f 32//57 33//57 31//57
