# Blender v3.1.2 OBJ File: 'clouds.blend'
# www.blender.org
o Icosphere
v -1.379145 0.430202 -0.431888
v -1.833831 -0.015807 -0.633258
v -0.921709 1.028756 -0.930449
v -1.385576 -0.504242 -0.650396
v -1.926847 1.074310 -0.962736
v -2.454530 1.027755 -1.631821
v -1.481155 1.531032 -1.990106
v -1.380032 1.325570 -2.779770
v -2.738653 -0.387476 -1.989784
v -2.550146 0.354256 -2.376656
v -0.625857 0.219770 -0.785030
v -1.051698 -0.606187 -1.072112
v -0.259078 0.402002 -2.079305
v -0.955641 1.494770 -2.954050
v 0.590005 0.860941 -3.008549
v -0.013811 -0.399933 -2.585621
v 0.564428 0.339788 -2.687719
v 0.229302 0.478187 -3.851614
v -0.842395 -0.435193 -2.154006
v -2.263586 -0.578906 -2.648707
v -1.398478 0.026294 -3.425199
v -1.497395 -0.303537 -2.917594
v -1.038872 0.622424 -3.761415
v -0.694894 -0.372156 -3.711630
v 0.270322 -0.301302 -3.247131
vn -0.5525 0.1976 0.8098
vn -0.3768 0.8960 0.2349
vn -0.6016 -0.5717 0.5579
vn 0.4740 0.3208 0.8200
vn -0.4522 0.8474 -0.2784
vn 0.5071 0.4931 0.7069
vn 0.3789 0.9092 0.1724
vn 0.5610 0.4138 0.7170
vn 0.3133 0.8071 -0.5005
vn 0.8158 -0.5744 0.0670
vn -0.4197 0.1329 -0.8979
vn -0.4967 0.6146 -0.6128
vn 0.1436 -0.9814 -0.1273
vn 0.2107 -0.9170 -0.3388
vn -0.5712 -0.6330 -0.5226
vn 0.4401 -0.3793 0.8139
vn 0.1189 -0.9882 -0.0963
vn -0.7837 0.1175 0.6099
vn 0.0042 0.6381 0.7699
vn 0.0278 0.9089 0.4161
vn -0.5198 0.8082 -0.2768
vn -0.2114 -0.9688 0.1291
vn -0.8352 0.0288 0.5492
vn -0.9748 0.2127 -0.0672
vn -0.8199 -0.0868 -0.5659
vn -0.6558 0.5999 -0.4582
vn 0.9356 -0.1972 -0.2928
vn 0.6035 -0.5210 0.6037
vn 0.8503 -0.4978 0.1709
vn 0.6782 0.7348 -0.0097
vn 0.8768 0.3748 0.3012
vn 0.5470 -0.3209 0.7732
vn -0.1628 -0.9807 0.1082
vn 0.1189 -0.8430 -0.5246
vn -0.7454 0.3050 -0.5927
vn 0.1646 -0.2257 0.9602
vn -0.8474 0.2458 -0.4706
vn -0.1370 -0.9891 -0.0530
vn 0.0248 0.6778 -0.7349
vn 0.0226 -0.9990 -0.0383
vn -0.4661 -0.2043 -0.8608
vn -0.0795 -0.0772 -0.9938
vn 0.7794 -0.5749 0.2491
vn 0.3946 -0.5500 -0.7360
s off
f 2//1 1//1 5//1
f 5//2 7//2 6//2
f 9//3 4//3 2//3
f 3//4 1//4 11//4
f 8//5 7//5 14//5
f 15//6 7//6 13//6
f 14//7 7//7 15//7
f 15//8 13//8 17//8
f 14//9 15//9 18//9
f 19//10 13//10 12//10
f 10//11 8//11 20//11
f 23//12 8//12 14//12
f 20//13 19//13 12//13
f 20//14 22//14 19//14
f 21//15 24//15 22//15
f 19//16 16//16 13//16
f 24//17 25//17 16//17
f 6//18 2//18 5//18
f 3//19 5//19 1//19
f 7//20 5//20 3//20
f 8//21 6//21 7//21
f 9//22 20//22 4//22
f 9//23 2//23 6//23
f 10//24 9//24 6//24
f 20//25 9//25 10//25
f 8//26 10//26 6//26
f 15//27 17//27 25//27 18//27
f 4//28 12//28 11//28
f 12//29 13//29 11//29
f 13//30 7//30 3//30
f 11//31 13//31 3//31
f 13//32 16//32 17//32
f 20//33 12//33 4//33
f 21//34 22//34 20//34
f 20//35 8//35 21//35
f 1//36 2//36 4//36 11//36
f 21//37 8//37 23//37
f 22//38 24//38 19//38
f 23//39 14//39 18//39
f 24//40 16//40 19//40
f 24//41 21//41 23//41
f 24//42 23//42 18//42
f 16//43 25//43 17//43
f 24//44 18//44 25//44
